<svg xmlns="http://www.w3.org/2000/svg" width="800.757px" height="178.861px" viewBox="0 0 800.757 178.861">
<path fill="#A8A9A9" d="M206.554,80.622c-3.419,47.201,2.779,81.277,70.216,95.52c32.22,6.803,59.832-0.074,73.582-10.486
	c14.583-11.049,33.379-24.791,39.08-51.797c3.818-18.086-8.456-35.037-14.78-51.097c-11.027-28.008-40.766-37.443-72.672-44.18
	c-33.487-7.072-39.202,0.871-66.78,16.623C219.72,44.047,207.775,63.764,206.554,80.622z"/>
<path fill="#C7C8C8" d="M622.108,103.808c1.23,45.863-28.977,70.225-117.639,72.604c-42.361,1.139-69.795-7.381-84.646-18.775
	c-15.756-12.086-18.541-19.955-19.211-44.914c-0.857-31.943,16.266-41.314,28.142-54.669c20.714-23.293,56.024-33.227,83.981-34.797
	c43.984-2.473,48.604,13.719,78.939,34.262C607.475,68.22,621.698,88.544,622.108,103.808z"/>
<path fill="#949495" d="M631.528,83.067c0,45.879,21.439,74.734,83.068,74.734c29.447,0,46.762-3.102,56.865-14.889
	c10.719-12.504,26.203-25.051,26.203-50.02c-0.002-16.717-14.725-43.538-23.223-56.569C759.622,13.596,743.754,0,714.596,0
	c-30.604,0-45.178,18.418-66.396,37.516C636.292,48.232,631.528,67.796,631.528,83.067z"/>
<path fill="#D7D7D8" d="M194.85,90.374c0,48.686-24.653,79.305-95.53,79.305c-33.863,0-53.777-3.289-65.397-15.797
	c-12.326-13.27-30.133-26.584-30.133-53.08c0.001-17.74,16.934-46.198,26.707-60.026C47.541,16.656,65.787,2.23,99.32,2.23
	c35.196,0,51.958,19.545,76.358,39.807C189.373,53.412,194.85,74.173,194.85,90.374z"/>
</svg>
