<?xml version="1.0" encoding="utf-8"?>
<!-- Generator: Adobe Illustrator 16.0.0, SVG Export Plug-In . SVG Version: 6.00 Build 0)  -->
<!DOCTYPE svg PUBLIC "-//W3C//DTD SVG 1.1//EN" "http://www.w3.org/Graphics/SVG/1.1/DTD/svg11.dtd">
<svg version="1.1" id="레이어_1" xmlns="http://www.w3.org/2000/svg" xmlns:xlink="http://www.w3.org/1999/xlink" x="0px"
	 y="0px" width="841.89px" height="655px" viewBox="0 0 841.89 655" enable-background="new 0 0 841.89 655" xml:space="preserve">
<path fill="#A8A9A9" d="M140.888,412.807c0,45.879,24.059,69.424,93.23,69.424c33.048,0,54.258-9.254,65.597-21.039
	c12.029-12.506,27.635-28.18,27.635-53.149c-0.001-16.719-23.529-40.588-33.373-52.687c-17.777-21.849-37.857-30.925-70.583-30.925
	c-34.349,0-39.983,23.728-63.796,42.823C146.232,377.973,140.888,397.535,140.888,412.807z"/>
<path fill="#A8A9A9" d="M451.055,252.729c6.406,50.476,19.512,84.988,88.438,84.988c32.93,0,58.525-13.383,69.826-27.41
	c11.986-14.88,27.535-33.534,27.535-63.246c0-19.896-15.514-35.022-25.018-50.531c-16.576-27.047-47.623-30.369-80.234-30.369
	c-34.227,0-38.176,9.637-61.902,32.361C456.38,211.276,448.766,234.701,451.055,252.729z"/>
<path fill="#A8A9A9" d="M227.614,545.214c-3.419,47.201,2.779,81.277,70.216,95.52c32.22,6.803,59.832-0.074,73.582-10.486
	c14.583-11.049,33.379-24.791,39.08-51.797c3.818-18.086-8.456-35.037-14.78-51.097c-11.027-28.008-40.766-37.443-72.672-44.18
	c-33.487-7.072-39.202,0.871-66.78,16.623C240.78,508.639,228.835,528.355,227.614,545.214z"/>
<path fill="#C7C8C8" d="M208.625,245.229c-5.93,45.493,21.618,72.828,109.568,84.293c42.021,5.478,70.183-0.183,86.125-9.991
	c16.912-10.405,32.666-17.603,35.894-42.362c4.132-31.688-24.115-43.109-34.559-57.612c-18.214-25.295-52.318-38.8-79.966-43.232
	c-43.5-6.972-49.755,8.658-82.038,25.981C226.833,211.329,210.599,230.086,208.625,245.229z"/>
<path fill="#C7C8C8" d="M643.168,568.399c1.23,45.863-28.977,70.225-117.639,72.604c-42.361,1.139-69.795-7.381-84.646-18.775
	c-15.756-12.086-18.541-19.955-19.211-44.914c-0.857-31.943,16.266-41.314,28.142-54.669c20.714-23.293,56.024-33.227,83.981-34.797
	c43.984-2.473,48.604,13.719,78.939,34.262C628.535,532.812,642.758,553.136,643.168,568.399z"/>
<path d="M273.121,385.152c0,0.85,0.529,1.537,1.182,1.537h4.726c0.652,0,1.182-0.688,1.182-1.537v-6.654
	c0-0.848-0.53-1.535-1.182-1.535h-4.726c-0.652,0-1.182,0.688-1.182,1.535V385.152z"/>
<path d="M234.728,385.152c0,0.85,0.529,1.537,1.182,1.537h4.726c0.652,0,1.181-0.688,1.181-1.537v-6.654
	c0-0.848-0.528-1.535-1.181-1.535h-4.726c-0.653,0-1.182,0.688-1.182,1.535V385.152z"/>
<path d="M236.262,407.638c0,0.78,0.826,1.414,1.845,1.414h38.247c1.02,0,1.846-0.634,1.846-1.414v-4.459
	c0-0.78-0.827-1.413-1.846-1.413h-38.247c-1.019,0-1.845,0.633-1.845,1.413V407.638z"/>
<path fill="#949495" d="M708.693,412.865c0,45.879-21.436,74.732-83.066,74.732c-29.445,0-46.762-3.1-56.865-14.887
	c-10.719-12.504-26.203-25.051-26.203-50.02c0.002-16.719,14.727-43.538,23.223-56.57c14.822-22.729,30.689-36.323,59.846-36.323
	c30.605,0,45.18,18.419,66.396,37.515C703.932,378.031,708.693,397.594,708.693,412.865z"/>
<path fill="#949495" d="M652.588,547.659c0,45.879,21.439,74.734,83.068,74.734c29.447,0,46.762-3.102,56.865-14.889
	c10.719-12.504,26.203-25.051,26.203-50.02c-0.002-16.717-14.725-43.538-23.223-56.569c-14.82-22.729-30.688-36.324-59.846-36.324
	c-30.604,0-45.178,18.418-66.396,37.516C657.352,512.824,652.588,532.388,652.588,547.659z"/>
<path d="M596.789,390.521c0,0.848-0.529,1.535-1.184,1.535h-4.725c-0.652,0-1.184-0.688-1.184-1.535v-6.654
	c0-0.849,0.531-1.536,1.184-1.536h4.725c0.654,0,1.184,0.688,1.184,1.536V390.521z"/>
<path d="M635.182,390.521c0,0.848-0.527,1.535-1.182,1.535h-4.727c-0.652,0-1.182-0.688-1.182-1.535v-6.654
	c0-0.849,0.529-1.536,1.182-1.536H634c0.654,0,1.182,0.688,1.182,1.536V390.521z"/>
<path fill="#D7D7D8" d="M530.725,418.867c-2.598,48.615-28.848,77.875-99.625,74.092c-33.814-1.807-53.524-6.154-64.46-19.264
	c-11.6-13.908-28.672-28.152-27.259-54.611c0.947-17.715,19.375-45.229,29.871-58.518c18.309-23.175,37.297-36.606,70.782-34.818
	c35.146,1.878,50.84,22.289,74.127,43.826C527.229,381.662,531.59,402.686,530.725,418.867z"/>
<path fill="#D7D7D8" d="M215.91,554.966c0,48.686-24.653,79.305-95.53,79.305c-33.863,0-53.777-3.289-65.397-15.797
	c-12.326-13.27-30.133-26.584-30.133-53.08c0.001-17.74,16.934-46.198,26.707-60.026c17.044-24.119,35.291-38.545,68.823-38.545
	c35.196,0,51.958,19.545,76.358,39.807C210.433,518.004,215.91,538.765,215.91,554.966z"/>
<path d="M445.039,425.625c-0.019,0.781-0.859,1.395-1.878,1.371l-38.236-0.873c-1.021-0.021-1.832-0.674-1.813-1.455l0.102-4.457
	c0.018-0.779,0.858-1.395,1.878-1.371l38.237,0.873c1.018,0.021,1.83,0.674,1.813,1.453L445.039,425.625z"/>
<path d="M543.955,272.839c0,0.78-0.828,1.414-1.846,1.414h-38.246c-1.021,0-1.848-0.633-1.848-1.414v-4.46
	c0-0.78,0.826-1.412,1.848-1.412h38.246c1.018,0,1.846,0.632,1.846,1.412V272.839z"/>
<path fill="#BFC0C0" d="M502.598,109.116c0,48.684-21.313,79.303-82.587,79.303c-29.275,0-42.962-5.724-56.537-15.798
	c-13.666-10.143-26.052-26.583-26.052-53.078c0.001-17.741,14.64-46.2,23.088-60.029c14.737-24.118,30.509-38.544,59.5-38.544
	c30.427,0,44.918,19.544,66.013,39.808C497.865,72.152,502.598,92.911,502.598,109.116z"/>
<path d="M407.108,399.082c0,1.271-0.794,2.303-1.774,2.303h-7.088c-0.98,0-1.773-1.031-1.773-2.303V389.1
	c0-1.273,0.793-2.305,1.773-2.305h7.088c0.98,0,1.774,1.031,1.774,2.305V399.082z"/>
<path d="M451.275,399.082c0,1.271-0.794,2.303-1.773,2.303h-7.088c-0.98,0-1.773-1.031-1.773-2.303V389.1
	c0-1.273,0.793-2.305,1.773-2.305h7.088c0.979,0,1.773,1.031,1.773,2.305V399.082z"/>
<circle fill="none" stroke="#000000" stroke-width="5" stroke-miterlimit="10" cx="397.823" cy="394.09" r="19.428"/>
<circle fill="none" stroke="#000000" stroke-width="5" stroke-miterlimit="10" cx="451.275" cy="394.09" r="19.428"/>
<line fill="none" stroke="#000000" stroke-width="5" stroke-miterlimit="10" x1="417.251" y1="394.09" x2="431.847" y2="394.09"/>
<path fill="none" stroke="#000000" stroke-width="10" stroke-linecap="round" stroke-linejoin="round" stroke-miterlimit="10" d="
	M591.652,412.119c0,0,13.309,5.097,18.248-8.133c0,0,2.545,11.12,20.203,9.203"/>
<path fill="none" stroke="#000000" stroke-width="10" stroke-linecap="round" stroke-linejoin="round" stroke-miterlimit="10" d="
	M345.827,265.708c0,0,12.513,5.017,17.907-5.758c0,0,1.888,9.438,18.921,8.843"/>
<path fill="none" stroke="#000000" stroke-width="9" stroke-linecap="round" stroke-linejoin="round" stroke-miterlimit="10" d="
	M328.758,241.824c0,0,10.023,1.102,16.832-2.619"/>
<path fill="none" stroke="#000000" stroke-width="9" stroke-linecap="round" stroke-linejoin="round" stroke-miterlimit="10" d="
	M392.195,244.008c0,0-7.682-0.721-12.552-5.138"/>
<path fill="none" stroke="#000000" stroke-width="9" stroke-linecap="round" stroke-linejoin="round" stroke-miterlimit="10" d="
	M561.234,203.991c0,0-9.275-3.954-16.867-2.361"/>
<path fill="none" stroke="#000000" stroke-width="9" stroke-linecap="round" stroke-linejoin="round" stroke-miterlimit="10" d="
	M487.048,205.257c0,0,6.896-3.458,13.368-2.29"/>
<path d="M423.783,125.753c0,10.165-6.386,18.406-11.353,18.406c-3.851,0-11.353-8.241-11.353-18.406
	c0-10.166,1.516-14.476,11.353-14.476C423.783,111.277,423.783,115.587,423.783,125.753z"/>
<path fill="#2D2A29" stroke="#000000" stroke-width="10" stroke-miterlimit="10" d="M509.068,241.974
	c0,3.828-3.951,6.931-8.824,6.931h-20.305c-4.873,0-8.824-3.103-8.824-6.931v-6.183c0-3.828,3.951-6.931,8.824-6.931h20.305
	c4.873,0,8.824,3.103,8.824,6.931V241.974z"/>
<path fill="#2D2A29" stroke="#000000" stroke-width="10" stroke-miterlimit="10" d="M571.406,241.974
	c0,3.828-3.992,6.931-8.916,6.931h-20.51c-4.924,0-8.914-3.103-8.914-6.931v-6.183c0-3.828,3.99-6.931,8.914-6.931h20.51
	c4.924,0,8.916,3.103,8.916,6.931V241.974z"/>
<line fill="none" stroke="#000000" stroke-width="10" stroke-miterlimit="10" x1="511.002" y1="238.518" x2="529.354" y2="238.518"/>
<path d="M396.468,98.925c-0.02,0.848-0.563,1.523-1.217,1.508l-4.725-0.107c-0.653-0.015-1.166-0.714-1.146-1.563l0.152-6.653
	c0.019-0.848,0.563-1.523,1.216-1.508l4.724,0.107c0.653,0.015,1.167,0.714,1.147,1.562L396.468,98.925z"/>
<path d="M434.852,99.801c-0.02,0.847-0.564,1.523-1.217,1.508l-4.725-0.108c-0.652-0.015-1.166-0.714-1.146-1.562l0.152-6.653
	c0.019-0.847,0.564-1.523,1.217-1.508l4.725,0.107c0.652,0.016,1.165,0.715,1.146,1.563L434.852,99.801z"/>
<circle fill="none" stroke="#EB6334" stroke-width="10" stroke-miterlimit="10" cx="386.477" cy="95.37" r="19.428"/>
<circle fill="none" stroke="#EB6334" stroke-width="10" stroke-miterlimit="10" cx="439.916" cy="96.588" r="19.428"/>
<line fill="none" stroke="#EB6334" stroke-width="10" stroke-miterlimit="10" x1="405.9" y1="95.813" x2="420.492" y2="96.146"/>
</svg>
