<svg class="stones" xmlns="http://www.w3.org/2000/svg" xmlns:xlink="http://www.w3.org/1999/xlink" x="0px" y="0px" width="841.89px" height="698.965px" viewBox="0 0 841.89 698.965" enable-background="new 0 0 841.89 698.965" xml:space="preserve">
<path fill="#A8A9A9" d="M139.888,422.699c0,45.879,24.059,69.424,93.23,69.424c33.048,0,54.258-9.254,65.597-21.039
	c12.029-12.506,27.635-28.18,27.635-53.149c-0.001-16.719-23.529-40.588-33.373-52.687c-17.777-21.849-37.857-30.925-70.583-30.925
	c-34.349,0-39.983,23.728-63.796,42.823C145.232,387.865,139.888,407.427,139.888,422.699z"/>
<path fill="#A8A9A9" d="M450.055,262.621c6.406,50.476,19.512,84.988,88.438,84.988c32.93,0,58.525-13.383,69.826-27.41
	c11.986-14.88,27.535-33.534,27.535-63.246c0-19.896-15.514-35.022-25.018-50.531c-16.576-27.047-47.623-30.369-80.234-30.369
	c-34.227,0-38.176,9.637-61.902,32.361C455.38,221.168,447.766,244.593,450.055,262.621z"/>
<path fill="#A8A9A9" d="M226.614,555.106c-3.419,47.201,2.779,81.277,70.216,95.52c32.22,6.803,59.832-0.074,73.582-10.486
	c14.583-11.049,33.379-24.791,39.08-51.797c3.818-18.086-8.456-35.037-14.78-51.097c-11.027-28.008-40.766-37.443-72.672-44.18
	c-33.487-7.072-39.202,0.871-66.78,16.623C239.78,518.531,227.835,538.248,226.614,555.106z"/>
<path fill="#C7C8C8" d="M207.625,255.122c-5.93,45.493,21.618,72.828,109.568,84.293c42.021,5.478,70.183-0.183,86.125-9.991
	c16.912-10.405,32.666-17.603,35.894-42.362c4.132-31.688-24.115-43.109-34.559-57.612c-18.214-25.295-52.318-38.8-79.966-43.232
	c-43.5-6.972-49.755,8.658-82.038,25.981C225.833,221.221,209.599,239.979,207.625,255.122z"/>
<path fill="#C7C8C8" d="M642.168,578.292c1.23,45.863-28.977,70.225-117.639,72.604c-42.361,1.139-69.795-7.381-84.646-18.775
	c-15.756-12.086-18.541-19.955-19.211-44.914c-0.857-31.943,16.266-41.314,28.142-54.669c20.714-23.293,56.024-33.227,83.981-34.797
	c43.984-2.473,48.604,13.719,78.939,34.262C627.535,542.704,641.758,563.028,642.168,578.292z"/>
<path fill="#949495" d="M707.693,422.757c0,45.879-21.436,74.732-83.066,74.732c-29.445,0-46.762-3.1-56.865-14.887
	c-10.719-12.504-26.203-25.051-26.203-50.02c0.002-16.719,14.727-43.538,23.223-56.57c14.822-22.729,30.689-36.323,59.846-36.323
	c30.605,0,45.18,18.419,66.396,37.515C702.932,387.923,707.693,407.486,707.693,422.757z"/>
<path fill="#949495" d="M651.588,557.551c0,45.879,21.439,74.734,83.068,74.734c29.447,0,46.762-3.102,56.865-14.889
	c10.719-12.504,26.203-25.051,26.203-50.02c-0.002-16.717-14.725-43.538-23.223-56.569c-14.82-22.729-30.688-36.324-59.846-36.324
	c-30.604,0-45.178,18.418-66.396,37.516C656.352,522.716,651.588,542.28,651.588,557.551z"/>
<path fill="#D7D7D8" d="M529.725,428.759c-2.598,48.615-28.848,77.875-99.625,74.092c-33.814-1.807-53.524-6.154-64.46-19.264
	c-11.6-13.908-28.672-28.152-27.259-54.611c0.947-17.715,19.375-45.229,29.871-58.518c18.309-23.175,37.297-36.606,70.782-34.818
	c35.146,1.878,50.84,22.289,74.127,43.826C526.229,391.554,530.59,412.578,529.725,428.759z"/>
<path fill="#D7D7D8" d="M214.91,564.858c0,48.686-24.653,79.305-95.53,79.305c-33.863,0-53.777-3.289-65.397-15.797
	c-12.326-13.27-30.133-26.584-30.133-53.08c0.001-17.74,16.934-46.198,26.707-60.026c17.044-24.119,35.291-38.545,68.823-38.545
	c35.196,0,51.958,19.545,76.358,39.807C209.433,527.896,214.91,548.657,214.91,564.858z"/>
<path fill="#BFC0C0" d="M501.598,119.008c0,48.684-21.313,79.303-82.587,79.303c-29.275,0-42.962-5.724-56.537-15.798
	c-13.666-10.143-26.052-26.583-26.052-53.078c0.001-17.741,14.64-46.2,23.088-60.029c14.737-24.118,30.509-38.544,59.5-38.544
	c30.427,0,44.918,19.544,66.013,39.808C496.865,82.044,501.598,102.803,501.598,119.008z"/>
</svg>
